<svg xmlns="http://www.w3.org/2000/svg" xmlns:xlink="http://www.w3.org/1999/xlink" xmlns:inkscape="http://www.inkscape.org/namespaces/inkscape" version="1.1" width="239.19219" height="53.874696" viewBox="0 0 239.19219 53.874696">
<defs>
<clipPath id="clip_1">
<path transform="matrix(1,0,0,-1,-177.3459,733.5149)" d="M177.3459 679.6402H416.5381V733.5149H177.3459Z" clip-rule="evenodd"/>
</clipPath>
</defs>
<g clip-path="url(#clip_1)">
<text xml:space="preserve" transform="matrix(1 0 -0 1 -177.3459 733.51486)" font-size="9.9626" font-family="Computer Modern" font-style="italic"><tspan y="-722.868" x="182.219 186.65236 191.07576">&#x00b7;&#x00b7;&#x00b7;</tspan></text>
<text xml:space="preserve" transform="matrix(1 0 -0 1 -177.3459 733.51486)" font-size="9.9626" font-family="Computer Modern" font-style="italic"><tspan y="-722.868" x="231.481">F</tspan></text>
<text xml:space="preserve" transform="matrix(1 0 -0 1 -177.3459 733.51486)" font-size="6.9738" font-family="Computer Modern"><tspan y="-721.37399" x="237.888">1</tspan></text>
<text xml:space="preserve" transform="matrix(1 0 -0 1 -177.3459 733.51486)" font-size="9.9626" font-family="Computer Modern"><tspan y="-722.868" x="242.357">(</tspan></text>
<text xml:space="preserve" transform="matrix(1 0 -0 1 -177.3459 733.51486)" font-size="9.9626" font-family="Computer Modern" font-style="italic"><tspan y="-722.868" x="246.23099">M</tspan></text>
<text xml:space="preserve" transform="matrix(1 0 -0 1 -177.3459 733.51486)" font-size="9.9626" font-family="Computer Modern"><tspan y="-722.868" x="256.983">)</tspan></text>
<text xml:space="preserve" transform="matrix(1 0 -0 1 -177.34593 733.51486)" font-size="9.9626" font-family="Computer Modern" font-style="italic"><tspan y="-722.868" x="299.209">F</tspan></text>
<text xml:space="preserve" transform="matrix(1 0 -0 1 -177.34593 733.51486)" font-size="6.9738" font-family="Computer Modern"><tspan y="-721.37399" x="305.61503">0</tspan></text>
<text xml:space="preserve" transform="matrix(1 0 -0 1 -177.34593 733.51486)" font-size="9.9626" font-family="Computer Modern"><tspan y="-722.868" x="310.08503">(</tspan></text>
<text xml:space="preserve" transform="matrix(1 0 -0 1 -177.34593 733.51486)" font-size="9.9626" font-family="Computer Modern" font-style="italic"><tspan y="-722.868" x="313.959">M</tspan></text>
<text xml:space="preserve" transform="matrix(1 0 -0 1 -177.34593 733.51486)" font-size="9.9626" font-family="Computer Modern"><tspan y="-722.868" x="324.71104">)</tspan></text>
<text xml:space="preserve" transform="matrix(1 0 -0 1 -177.34592 733.51486)" font-size="9.9626" font-family="Computer Modern" font-style="italic"><tspan y="-722.868" x="366.245">H</tspan></text>
<text xml:space="preserve" transform="matrix(1 0 -0 1 -177.34592 733.51486)" font-size="6.9738" font-family="Computer Modern"><tspan y="-721.37399" x="374.526">0</tspan></text>
<text xml:space="preserve" transform="matrix(1 0 -0 1 -177.34592 733.51486)" font-size="9.9626" font-family="Computer Modern"><tspan y="-722.868" x="378.996">(</tspan></text>
<text xml:space="preserve" transform="matrix(1 0 -0 1 -177.34592 733.51486)" font-size="9.9626" font-family="Computer Modern" font-style="italic"><tspan y="-722.868" x="382.87">F</tspan></text>
<text xml:space="preserve" transform="matrix(1 0 -0 1 -177.34592 733.51486)" font-size="9.9626" font-family="Computer Modern"><tspan y="-722.868" x="390.66">(</tspan></text>
<text xml:space="preserve" transform="matrix(1 0 -0 1 -177.34592 733.51486)" font-size="9.9626" font-family="Computer Modern" font-style="italic"><tspan y="-722.868" x="394.535">M</tspan></text>
<text xml:space="preserve" transform="matrix(1 0 -0 1 -177.34592 733.51486)" font-size="9.9626" font-family="Computer Modern"><tspan y="-722.868" x="405.286 409.16148">))</tspan></text>
<text xml:space="preserve" transform="matrix(1 0 -0 1 -177.3459 733.5149)" font-size="9.9626" font-family="Computer Modern" font-style="italic"><tspan y="-687.68" x="182.219 186.65236 191.07576">&#x00b7;&#x00b7;&#x00b7;</tspan></text>
<text xml:space="preserve" transform="matrix(1 0 -0 1 -177.34592 733.5149)" font-size="9.9626" font-family="Computer Modern" font-style="italic"><tspan y="-687.68" x="230.768">G</tspan></text>
<text xml:space="preserve" transform="matrix(1 0 -0 1 -177.34592 733.5149)" font-size="6.9738" font-family="Computer Modern"><tspan y="-686.186" x="238.60102">1</tspan></text>
<text xml:space="preserve" transform="matrix(1 0 -0 1 -177.34592 733.5149)" font-size="9.9626" font-family="Computer Modern"><tspan y="-687.68" x="243.07">(</tspan></text>
<text xml:space="preserve" transform="matrix(1 0 -0 1 -177.34592 733.5149)" font-size="9.9626" font-family="Computer Modern" font-style="italic"><tspan y="-687.68" x="246.945">M</tspan></text>
<text xml:space="preserve" transform="matrix(1 0 -0 1 -177.34592 733.5149)" font-size="9.9626" font-family="Computer Modern"><tspan y="-687.68" x="257.696">)</tspan></text>
<text xml:space="preserve" transform="matrix(1 0 -0 1 -177.34592 733.5149)" font-size="9.9626" font-family="Computer Modern" font-style="italic"><tspan y="-687.68" x="298.496">G</tspan></text>
<text xml:space="preserve" transform="matrix(1 0 -0 1 -177.34592 733.5149)" font-size="6.9738" font-family="Computer Modern"><tspan y="-686.186" x="306.329">0</tspan></text>
<text xml:space="preserve" transform="matrix(1 0 -0 1 -177.34592 733.5149)" font-size="9.9626" font-family="Computer Modern"><tspan y="-687.68" x="310.798">(</tspan></text>
<text xml:space="preserve" transform="matrix(1 0 -0 1 -177.34592 733.5149)" font-size="9.9626" font-family="Computer Modern" font-style="italic"><tspan y="-687.68" x="314.673">M</tspan></text>
<text xml:space="preserve" transform="matrix(1 0 -0 1 -177.34592 733.5149)" font-size="9.9626" font-family="Computer Modern"><tspan y="-687.68" x="325.424">)</tspan></text>
<text xml:space="preserve" transform="matrix(1 0 -0 1 -177.34592 733.5149)" font-size="9.9626" font-family="Computer Modern" font-style="italic"><tspan y="-687.68" x="366.224">H</tspan></text>
<text xml:space="preserve" transform="matrix(1 0 -0 1 -177.34592 733.5149)" font-size="6.9738" font-family="Computer Modern"><tspan y="-686.186" x="374.505">0</tspan></text>
<text xml:space="preserve" transform="matrix(1 0 -0 1 -177.34592 733.5149)" font-size="9.9626" font-family="Computer Modern"><tspan y="-687.68" x="378.974">(</tspan></text>
<text xml:space="preserve" transform="matrix(1 0 -0 1 -177.34592 733.5149)" font-size="9.9626" font-family="Computer Modern" font-style="italic"><tspan y="-687.68" x="382.849">G</tspan></text>
<text xml:space="preserve" transform="matrix(1 0 -0 1 -177.34592 733.5149)" font-size="9.9626" font-family="Computer Modern"><tspan y="-687.68" x="390.682">(</tspan></text>
<text xml:space="preserve" transform="matrix(1 0 -0 1 -177.34592 733.5149)" font-size="9.9626" font-family="Computer Modern" font-style="italic"><tspan y="-687.68" x="394.556">M</tspan></text>
<text xml:space="preserve" transform="matrix(1 0 -0 1 -177.34592 733.5149)" font-size="9.9626" font-family="Computer Modern"><tspan y="-687.68" x="405.308 409.18348">))</tspan></text>
<path transform="matrix(1,0,0,-1,120.2921,25.749878)" stroke-width=".39848" stroke-linecap="butt" stroke-miterlimit="10" stroke-linejoin="miter" fill="none" stroke="#000000" d="M-99.30801 17.59401H-71.04489"/>
<path transform="matrix(1,0,0,-1,49.44644,8.155869)" stroke-width=".39848" stroke-linecap="round" stroke-linejoin="round" fill="none" stroke="#000000" d="M-2.07213 2.39091C-1.69356 .95633-.84995 .27893 0 0-.84995-.27893-1.69356-.95633-2.07213-2.39091"/>
<path transform="matrix(1,0,0,-1,120.2921,25.749878)" stroke-width=".39848" stroke-linecap="butt" stroke-miterlimit="10" stroke-linejoin="miter" fill="none" stroke="#000000" d="M-32.29253 17.59401H-3.3161"/>
<path transform="matrix(1,0,0,-1,117.17523,8.155869)" stroke-width=".39848" stroke-linecap="round" stroke-linejoin="round" fill="none" stroke="#000000" d="M-2.07213 2.39091C-1.69356 .95633-.84995 .27893 0 0-.84995-.27893-1.69356-.95633-2.07213-2.39091"/>
<path transform="matrix(1,0,0,-1,120.2921,25.749878)" stroke-width=".39848" stroke-linecap="butt" stroke-dasharray="2.78941,1.59395" stroke-miterlimit="10" stroke-linejoin="miter" fill="none" stroke="#000000" d="M-51.46947 8.76726V-8.36877"/>
<path transform="matrix(0,1,1,0,68.82263,34.317888)" stroke-width=".39848" stroke-linecap="round" stroke-linejoin="round" fill="none" stroke="#000000" d="M-2.07213 2.39091C-1.69356 .95633-.84995 .27893 0 0-.84995-.27893-1.69356-.95633-2.07213-2.39091"/>
<text xml:space="preserve" transform="matrix(1 0 -0 1 -177.3459 733.5149)" font-size="6.9738" font-family="Computer Modern"><tspan y="-706.021" x="249.134">&#x02c6;</tspan></text>
<text xml:space="preserve" transform="matrix(1 0 -0 1 -177.3459 733.5149)" font-size="6.9738" font-family="Computer Modern" font-style="italic"><tspan y="-706.021" x="248.513">&#x03b7;</tspan></text>
<text xml:space="preserve" transform="matrix(1 0 -0 1 -177.3459 733.5149)" font-size="4.9813" font-family="Computer Modern" font-style="italic"><tspan y="-705.02" x="252.618">M</tspan></text>
<path transform="matrix(1,0,0,-1,120.2921,25.749878)" stroke-width=".39848" stroke-linecap="butt" stroke-miterlimit="10" stroke-linejoin="miter" fill="none" stroke="#000000" d="M35.43625 17.59401H63.72081"/>
<path transform="matrix(1,0,0,-1,184.21215,8.155869)" stroke-width=".39848" stroke-linecap="round" stroke-linejoin="round" fill="none" stroke="#000000" d="M-2.07213 2.39091C-1.69356 .95633-.84995 .27893 0 0-.84995-.27893-1.69356-.95633-2.07213-2.39091"/>
<path transform="matrix(1,0,0,-1,120.2921,25.749878)" stroke-width=".39848" stroke-linecap="butt" stroke-dasharray="2.78941,1.59395" stroke-miterlimit="10" stroke-linejoin="miter" fill="none" stroke="#000000" d="M16.2593 8.76726V-8.36877"/>
<path transform="matrix(0,1,1,0,136.55139,34.317888)" stroke-width=".39848" stroke-linecap="round" stroke-linejoin="round" fill="none" stroke="#000000" d="M-2.07213 2.39091C-1.69356 .95633-.84995 .27893 0 0-.84995-.27893-1.69356-.95633-2.07213-2.39091"/>
<text xml:space="preserve" transform="matrix(1 0 -0 1 -177.3459 733.5149)" font-size="6.9738" font-family="Computer Modern"><tspan y="-706.021" x="316.862">&#x02c6;</tspan></text>
<text xml:space="preserve" transform="matrix(1 0 -0 1 -177.3459 733.5149)" font-size="6.9738" font-family="Computer Modern" font-style="italic"><tspan y="-706.021" x="316.241">&#x03b7;</tspan></text>
<text xml:space="preserve" transform="matrix(1 0 -0 1 -177.3459 733.5149)" font-size="4.9813" font-family="Computer Modern" font-style="italic"><tspan y="-705.02" x="320.346">M</tspan></text>
<path transform="matrix(1,0,0,-1,120.2921,25.749878)" stroke-width=".39848" stroke-linecap="butt" stroke-miterlimit="10" stroke-linejoin="miter" fill="none" stroke="#000000" d="M92.00328 8.76726V-8.36877"/>
<path transform="matrix(0,1,1,0,212.29538,34.317888)" stroke-width=".39848" stroke-linecap="round" stroke-linejoin="round" fill="none" stroke="#000000" d="M-2.07213 2.39091C-1.69356 .95633-.84995 .27893 0 0-.84995-.27893-1.69356-.95633-2.07213-2.39091"/>
<text xml:space="preserve" transform="matrix(1 0 -0 1 -177.34592 733.5149)" font-size="6.9738" font-family="Computer Modern" font-style="italic"><tspan y="-706.942" x="391.984">&#x03b7;</tspan></text>
<text xml:space="preserve" transform="matrix(1 0 -0 1 -177.34592 733.5149)" font-size="4.9813" font-family="Computer Modern" font-style="italic"><tspan y="-705.94" x="396.08903">M</tspan></text>
<path transform="matrix(1,0,0,-1,120.2921,25.749878)" stroke-width=".39848" stroke-linecap="butt" stroke-miterlimit="10" stroke-linejoin="miter" fill="none" stroke="#000000" d="M-99.30801-17.594H-71.75818"/>
<path transform="matrix(1,0,0,-1,48.733163,43.34388)" stroke-width=".39848" stroke-linecap="round" stroke-linejoin="round" fill="none" stroke="#000000" d="M-2.07213 2.39091C-1.69356 .95633-.84995 .27893 0 0-.84995-.27893-1.69356-.95633-2.07213-2.39091"/>
<path transform="matrix(1,0,0,-1,120.2921,25.749878)" stroke-width=".39848" stroke-linecap="butt" stroke-miterlimit="10" stroke-linejoin="miter" fill="none" stroke="#000000" d="M-31.57922-17.594H-4.0294"/>
<path transform="matrix(1,0,0,-1,116.46195,43.34388)" stroke-width=".39848" stroke-linecap="round" stroke-linejoin="round" fill="none" stroke="#000000" d="M-2.07213 2.39091C-1.69356 .95633-.84995 .27893 0 0-.84995-.27893-1.69356-.95633-2.07213-2.39091"/>
<path transform="matrix(1,0,0,-1,120.2921,25.749878)" stroke-width=".39848" stroke-linecap="butt" stroke-miterlimit="10" stroke-linejoin="miter" fill="none" stroke="#000000" d="M36.14954-17.594H63.69937"/>
<path transform="matrix(1,0,0,-1,184.1907,43.34388)" stroke-width=".39848" stroke-linecap="round" stroke-linejoin="round" fill="none" stroke="#000000" d="M-2.07213 2.39091C-1.69356 .95633-.84995 .27893 0 0-.84995-.27893-1.69356-.95633-2.07213-2.39091"/>
<text xml:space="preserve" transform="matrix(1 0 -0 1 -177.3459 733.5149)" font-size="6.9738" font-family="Computer Modern"><tspan y="-84.99" x="295.652">1</tspan></text>
</g>
</svg>
