<svg xmlns="http://www.w3.org/2000/svg" xmlns:xlink="http://www.w3.org/1999/xlink" xmlns:inkscape="http://www.inkscape.org/namespaces/inkscape" version="1.1" width="209.9424" height="17.656006" viewBox="0 0 209.9424 17.656006">
<defs>
<clipPath id="clip_1">
<path transform="matrix(1,0,0,-1,-192.3611,733.7255)" d="M192.3611 716.0695H402.3035V733.7255H192.3611Z" clip-rule="evenodd"/>
</clipPath>
</defs>
<g clip-path="url(#clip_1)">
<text xml:space="preserve" transform="matrix(1 0 -0 1 -192.3611 733.72549)" font-size="9.9626" font-family="Computer Modern" font-style="italic"><tspan y="-723.027" x="198.286 202.71936 207.14276">&#x00b7;&#x00b7;&#x00b7;</tspan></text>
<text xml:space="preserve" transform="matrix(1 0 -0 1 -192.3611 733.72549)" font-size="9.9626" font-family="Computer Modern" font-style="italic"><tspan y="-723.027" x="246.834">E</tspan></text>
<text xml:space="preserve" transform="matrix(1 0 -0 1 -192.3611 733.72549)" font-size="6.9738" font-family="Computer Modern"><tspan y="-721.53298" x="254.188">1</tspan></text>
<text xml:space="preserve" transform="matrix(1 0 -0 1 -192.36112 733.72549)" font-size="9.9626" font-family="Computer Modern" font-style="italic"><tspan y="-723.027" x="295.583">E</tspan></text>
<text xml:space="preserve" transform="matrix(1 0 -0 1 -192.36112 733.72549)" font-size="6.9738" font-family="Computer Modern"><tspan y="-721.53298" x="302.937">0</tspan></text>
<text xml:space="preserve" transform="matrix(1 0 -0 1 -192.3611 733.72549)" font-size="9.9626" font-family="Computer Modern" font-style="italic"><tspan y="-723.027" x="344.332">M</tspan></text>
<text xml:space="preserve" transform="matrix(1 0 -0 1 -192.3611 733.72549)" font-size="9.9626" font-family="Computer Modern"><tspan y="-723.027" x="392.009">0</tspan></text>
<path transform="matrix(1,0,0,-1,105.2769,8.041504)" stroke-width=".39848" stroke-linecap="butt" stroke-miterlimit="10" stroke-linejoin="miter" fill="none" stroke="#000000" d="M-83.24164-.16605H-55.6918"/>
<path transform="matrix(1,0,0,-1,49.784334,8.207554)" stroke-width=".39848" stroke-linecap="round" stroke-linejoin="round" fill="none" stroke="#000000" d="M-2.07213 2.39091C-1.69356 .95633-.84995 .27893 0 0-.84995-.27893-1.69356-.95633-2.07213-2.39091"/>
<path transform="matrix(1,0,0,-1,105.2769,8.041504)" stroke-width=".39848" stroke-linecap="butt" stroke-miterlimit="10" stroke-linejoin="miter" fill="none" stroke="#000000" d="M-34.49191-.16605H-6.94208"/>
<path transform="matrix(1,0,0,-1,98.53406,8.207554)" stroke-width=".39848" stroke-linecap="round" stroke-linejoin="round" fill="none" stroke="#000000" d="M-2.07213 2.39091C-1.69356 .95633-.84995 .27893 0 0-.84995-.27893-1.69356-.95633-2.07213-2.39091"/>
<path transform="matrix(1,0,0,-1,105.2769,8.041504)" stroke-width=".39848" stroke-linecap="butt" stroke-miterlimit="10" stroke-linejoin="miter" fill="none" stroke="#000000" d="M14.2578-.16605H41.80762"/>
<path transform="matrix(1,0,0,-1,147.28377,8.207554)" stroke-width=".39848" stroke-linecap="round" stroke-linejoin="round" fill="none" stroke="#000000" d="M-2.07213 2.39091C-1.69356 .95633-.84995 .27893 0 0-.84995-.27893-1.69356-.95633-2.07213-2.39091"/>
<path transform="matrix(1,0,0,-1,105.2769,8.041504)" stroke-width=".39848" stroke-linecap="butt" stroke-miterlimit="10" stroke-linejoin="miter" fill="none" stroke="#000000" d="M61.9351-.16605H89.48494"/>
<path transform="matrix(1,0,0,-1,194.96108,8.207554)" stroke-width=".39848" stroke-linecap="round" stroke-linejoin="round" fill="none" stroke="#000000" d="M-2.07213 2.39091C-1.69356 .95633-.84995 .27893 0 0-.84995-.27893-1.69356-.95633-2.07213-2.39091"/>
<text xml:space="preserve" transform="matrix(1 0 -0 1 -192.3611 733.7255)" font-size="6.9738" font-family="Computer Modern"><tspan y="-84.99" x="295.652">1</tspan></text>
</g>
</svg>
