<svg xmlns="http://www.w3.org/2000/svg" xmlns:xlink="http://www.w3.org/1999/xlink" xmlns:inkscape="http://www.inkscape.org/namespaces/inkscape" version="1.1" width="208.8082" height="22.038514" viewBox="0 0 208.8082 22.038514">
<defs>
<clipPath id="clip_1">
<path transform="matrix(1,0,0,-1,-191.7987,736.4547)" d="M191.7987 714.4162H400.6069V736.4547H191.7987Z" clip-rule="evenodd"/>
</clipPath>
</defs>
<g clip-path="url(#clip_1)">
<text xml:space="preserve" transform="matrix(1 0 -0 1 -191.7987 736.45468)" font-size="9.9626" font-family="Computer Modern" font-style="italic"><tspan y="-723.027" x="200.064 204.49736 208.92076">&#x00b7;&#x00b7;&#x00b7;</tspan></text>
<text xml:space="preserve" transform="matrix(1 0 -0 1 -191.7987 736.45468)" font-size="9.9626" font-family="Computer Modern" font-style="italic"><tspan y="-723.027" x="248.612">F</tspan></text>
<text xml:space="preserve" transform="matrix(1 0 -0 1 -191.7987 736.45468)" font-size="6.9738" font-family="Computer Modern"><tspan y="-721.53298" x="255.018">1</tspan></text>
<text xml:space="preserve" transform="matrix(1 0 -0 1 -191.7987 736.45468)" font-size="9.9626" font-family="Computer Modern" font-style="italic"><tspan y="-723.027" x="296.413">F</tspan></text>
<text xml:space="preserve" transform="matrix(1 0 -0 1 -191.7987 736.45468)" font-size="6.9738" font-family="Computer Modern"><tspan y="-721.53298" x="302.82">0</tspan></text>
<text xml:space="preserve" transform="matrix(1 0 -0 1 -191.7987 736.45468)" font-size="9.9626" font-family="Computer Modern" font-style="italic"><tspan y="-723.027" x="344.214">N</tspan></text>
<text xml:space="preserve" transform="matrix(1 0 -0 1 -191.7987 736.45468)" font-size="9.9626" font-family="Computer Modern"><tspan y="-723.027" x="390.231">0</tspan></text>
<path transform="matrix(1,0,0,-1,105.839298,10.770691)" stroke-width=".39848" stroke-linecap="butt" stroke-miterlimit="10" stroke-linejoin="miter" fill="none" stroke="#000000" d="M-81.46355-.16605H-53.91371"/>
<path transform="matrix(1,0,0,-1,52.124814,10.936741)" stroke-width=".39848" stroke-linecap="round" stroke-linejoin="round" fill="none" stroke="#000000" d="M-2.07213 2.39091C-1.69356 .95633-.84995 .27893 0 0-.84995-.27893-1.69356-.95633-2.07213-2.39091"/>
<path transform="matrix(1,0,0,-1,105.839298,10.770691)" stroke-width=".39848" stroke-linecap="butt" stroke-miterlimit="10" stroke-linejoin="miter" fill="none" stroke="#000000" d="M-33.66167-.16605H-6.11185"/>
<path transform="matrix(1,0,0,-1,99.9267,10.936741)" stroke-width=".39848" stroke-linecap="round" stroke-linejoin="round" fill="none" stroke="#000000" d="M-2.07213 2.39091C-1.69356 .95633-.84995 .27893 0 0-.84995-.27893-1.69356-.95633-2.07213-2.39091"/>
<path transform="matrix(1,0,0,-1,105.839298,10.770691)" stroke-width=".39848" stroke-linecap="butt" stroke-miterlimit="10" stroke-linejoin="miter" fill="none" stroke="#000000" d="M14.14018-.16605H41.69002"/>
<path transform="matrix(1,0,0,-1,147.72855,10.936741)" stroke-width=".39848" stroke-linecap="round" stroke-linejoin="round" fill="none" stroke="#000000" d="M-2.07213 2.39091C-1.69356 .95633-.84995 .27893 0 0-.84995-.27893-1.69356-.95633-2.07213-2.39091"/>
<path transform="matrix(1,0,0,-1,105.839298,10.770691)" stroke-width=".39848" stroke-linecap="butt" stroke-miterlimit="10" stroke-linejoin="miter" fill="none" stroke="#000000" d="M60.15701-.16605H87.70685"/>
<path transform="matrix(1,0,0,-1,193.74538,10.936741)" stroke-width=".39848" stroke-linecap="round" stroke-linejoin="round" fill="none" stroke="#000000" d="M-2.07213 2.39091C-1.69356 .95633-.84995 .27893 0 0-.84995-.27893-1.69356-.95633-2.07213-2.39091"/>
<text xml:space="preserve" transform="matrix(1 0 -0 1 -191.7987 736.4547)" font-size="6.9738" font-family="Computer Modern"><tspan y="-84.99" x="295.652">1</tspan></text>
</g>
</svg>
