<svg xmlns="http://www.w3.org/2000/svg" xmlns:xlink="http://www.w3.org/1999/xlink" xmlns:inkscape="http://www.inkscape.org/namespaces/inkscape" version="1.1" width="143.49391" height="59.259584" viewBox="0 0 143.49391 59.259584">
<defs>
<clipPath id="clip_1">
<path transform="matrix(1,0,0,-1,-225.0305,735.3619)" d="M225.0305 676.1023H368.5244V735.3619H225.0305Z" clip-rule="evenodd"/>
</clipPath>
</defs>
<g clip-path="url(#clip_1)">
<text xml:space="preserve" transform="matrix(1 0 -0 1 -225.0305 735.3619)" font-size="9.9626" font-family="Computer Modern"><tspan y="-720.033" x="235.769 242.1351 247.1164">Top</tspan></text>
<text xml:space="preserve" transform="matrix(1 0 -0 1 -225.03049 735.3619)" font-size="9.9626" font-family="Computer Modern" font-style="italic"><tspan y="-720.033" x="323.18">R</tspan></text>
<text xml:space="preserve" transform="matrix(1 0 -0 1 -225.03049 735.3619)" font-size="9.9626" font-family="Computer Modern"><tspan y="-720.033" x="330.822 334.13954 343.27525 348.5355">-Mod</tspan></text>
<text xml:space="preserve" transform="matrix(1 0 -0 1 -225.03049 735.3619)" font-size="6.9738" font-family="Computer Modern" font-style="italic"><tspan y="-724.48806" x="354.068">&#x2265;</tspan></text>
<text xml:space="preserve" transform="matrix(1 0 -0 1 -225.03049 735.3619)" font-size="6.9738" font-family="Computer Modern"><tspan y="-724.48806" x="360.29499">0</tspan></text>
<text xml:space="preserve" transform="matrix(1 0 -0 1 -225.0305 735.3619)" font-size="9.9626" font-family="Computer Modern"><tspan y="-685.952" x="230.511 236.0502 241.0315 247.3976 252.37889">hoTop</tspan></text>
<path transform="matrix(1,0,0,-1,72.6075,28.719849)" stroke-width=".39848" stroke-linecap="butt" stroke-miterlimit="10" stroke-linejoin="miter" fill="none" stroke="#000000" d="M-40.49901 15.88179H20.65579"/>
<path transform="matrix(1,0,0,-1,93.462528,12.838058)" stroke-width=".39848" stroke-linecap="round" stroke-linejoin="round" fill="none" stroke="#000000" d="M-2.07213 2.39091C-1.69356 .95633-.84995 .27893 0 0-.84995-.27893-1.69356-.95633-2.07213-2.39091"/>
<text xml:space="preserve" transform="matrix(1 0 -0 1 -225.03049 735.3619)" font-size="6.9738" font-family="Computer Modern" font-style="italic"><tspan y="-726.611" x="272.197">H</tspan></text>
<text xml:space="preserve" transform="matrix(1 0 -0 1 -225.03049 735.3619)" font-size="4.9813" font-family="Computer Modern" font-style="italic"><tspan y="-725.61508" x="278.722">&#x2217;</tspan></text>
<text xml:space="preserve" transform="matrix(1 0 -0 1 -225.03049 735.3619)" font-size="6.9738" font-family="Computer Modern"><tspan y="-726.611" x="282.887">(</tspan></text>
<text xml:space="preserve" transform="matrix(1 0 -0 1 -225.03049 735.3619)" font-size="6.9738" font-family="Computer Modern" font-style="italic"><tspan y="-726.611" x="286.001">&#x2212;</tspan></text>
<text xml:space="preserve" transform="matrix(1 0 -0 1 -225.03049 735.3619)" font-size="6.9738" font-family="Computer Modern"><tspan y="-726.611" x="292.22703">;</tspan></text>
<text xml:space="preserve" transform="matrix(1 0 -0 1 -225.03049 735.3619)" font-size="6.9738" font-family="Computer Modern" font-style="italic"><tspan y="-726.611" x="294.48304">R</tspan></text>
<text xml:space="preserve" transform="matrix(1 0 -0 1 -225.03049 735.3619)" font-size="6.9738" font-family="Computer Modern"><tspan y="-726.611" x="300.52003">)</tspan></text>
<path transform="matrix(1,0,0,-1,72.6075,28.719849)" stroke-width=".39848" stroke-linecap="butt" stroke-miterlimit="10" stroke-linejoin="miter" fill="none" stroke="#000000" d="M-53.42845 7.60855V-9.52748"/>
<path transform="matrix(0,1,1,0,19.179047,38.446569)" stroke-width=".39848" stroke-linecap="round" stroke-linejoin="round" fill="none" stroke="#000000" d="M-2.07213 2.39091C-1.69356 .95633-.84995 .27893 0 0-.84995-.27893-1.69356-.95633-2.07213-2.39091"/>
<text xml:space="preserve" transform="matrix(1 0 -0 1 -225.03049 735.3619)" font-size="6.9738" font-family="Computer Modern"><tspan y="-703.062" x="233.495 237.89546">ho</tspan></text>
<path transform="matrix(1,0,0,-1,72.6075,28.719849)" stroke-width=".39848" stroke-linecap="butt" stroke-dasharray="2.78941,1.59395" stroke-miterlimit="10" stroke-linejoin="miter" fill="none" stroke="#000000" d="M-35.24086-11.99329 27.41858 9.41692"/>
<path transform="matrix(.94626,-.32332,-.32332,-.94626,100.214618,19.238539)" stroke-width=".39848" stroke-linecap="round" stroke-linejoin="round" fill="none" stroke="#000000" d="M-2.07213 2.39091C-1.69356 .95633-.84995 .27893 0 0-.84995-.27893-1.69356-.95633-2.07213-2.39091"/>
<text xml:space="preserve" transform="matrix(1 0 -0 1 -225.0305 735.3619)" font-size="6.9738" font-family="Computer Modern"><tspan y="-84.99" x="295.652">1</tspan></text>
</g>
</svg>
