<svg xmlns="http://www.w3.org/2000/svg" xmlns:xlink="http://www.w3.org/1999/xlink" xmlns:inkscape="http://www.inkscape.org/namespaces/inkscape" version="1.1" width="292.42933" height="89.77911" viewBox="0 0 292.42933 89.77911">
<defs>
<clipPath id="clip_1">
<path transform="matrix(1,0,0,-1,-150.8722,733.0578)" d="M150.8722 643.2787H443.3015V733.0578H150.8722Z" clip-rule="evenodd"/>
</clipPath>
</defs>
<g clip-path="url(#clip_1)">
<text xml:space="preserve" transform="matrix(1 0 -0 1 -150.8722 733.0578)" font-size="9.9626" font-family="Computer Modern" font-style="italic"><tspan y="-721.23" x="269.725 274.15837 278.58174">&#x00b7;&#x00b7;&#x00b7;</tspan></text>
<text xml:space="preserve" transform="matrix(1 0 -0 1 -150.87221 733.0578)" font-size="9.9626" font-family="Computer Modern"><tspan y="-721.23" x="339.086 345.4521 350.43339">Tor</tspan></text>
<text xml:space="preserve" transform="matrix(1 0 -0 1 -150.87221 733.0578)" font-size="6.9738" font-family="Computer Modern" font-style="italic"><tspan y="-725.574" x="354.33399">R</tspan></text>
<text xml:space="preserve" transform="matrix(1 0 -0 1 -150.87221 733.0578)" font-size="6.9738" font-family="Computer Modern"><tspan y="-718.76699" x="354.33399">2</tspan></text>
<text xml:space="preserve" transform="matrix(1 0 -0 1 -150.87221 733.0578)" font-size="9.9626" font-family="Computer Modern"><tspan y="-721.23" x="360.87">(</tspan></text>
<text xml:space="preserve" transform="matrix(1 0 -0 1 -150.87221 733.0578)" font-size="9.9626" font-family="Computer Modern" font-style="italic"><tspan y="-721.23" x="364.744">M</tspan></text>
<text xml:space="preserve" transform="matrix(1 0 -0 1 -150.87221 733.0578)" font-size="6.9738" font-family="Computer Modern" font-style="italic"><tspan y="-724.845" x="375.496 377.79039">&#x2032;&#x2032;</tspan></text>
<text xml:space="preserve" transform="matrix(1 0 -0 1 -150.87221 733.0578)" font-size="9.9626" font-family="Computer Modern" font-style="italic"><tspan y="-721.23" x="380.588 385.02137">,N</tspan></text>
<text xml:space="preserve" transform="matrix(1 0 -0 1 -150.87221 733.0578)" font-size="9.9626" font-family="Computer Modern"><tspan y="-721.23" x="394.10603">)</tspan></text>
<text xml:space="preserve" transform="matrix(1 0 -0 1 -150.8722 733.0578)" font-size="9.9626" font-family="Computer Modern"><tspan y="-684.404" x="155.388 161.7541 166.7354">Tor</tspan></text>
<text xml:space="preserve" transform="matrix(1 0 -0 1 -150.8722 733.0578)" font-size="6.9738" font-family="Computer Modern" font-style="italic"><tspan y="-688.74899" x="170.637">R</tspan></text>
<text xml:space="preserve" transform="matrix(1 0 -0 1 -150.8722 733.0578)" font-size="6.9738" font-family="Computer Modern"><tspan y="-681.941" x="170.637">1</tspan></text>
<text xml:space="preserve" transform="matrix(1 0 -0 1 -150.8722 733.0578)" font-size="9.9626" font-family="Computer Modern"><tspan y="-684.404" x="177.172">(</tspan></text>
<text xml:space="preserve" transform="matrix(1 0 -0 1 -150.8722 733.0578)" font-size="9.9626" font-family="Computer Modern" font-style="italic"><tspan y="-684.404" x="181.047">M</tspan></text>
<text xml:space="preserve" transform="matrix(1 0 -0 1 -150.8722 733.0578)" font-size="6.9738" font-family="Computer Modern" font-style="italic"><tspan y="-688.019" x="191.798">&#x2032;</tspan></text>
<text xml:space="preserve" transform="matrix(1 0 -0 1 -150.8722 733.0578)" font-size="9.9626" font-family="Computer Modern" font-style="italic"><tspan y="-684.404" x="194.593 199.02637">,N</tspan></text>
<text xml:space="preserve" transform="matrix(1 0 -0 1 -150.8722 733.0578)" font-size="9.9626" font-family="Computer Modern"><tspan y="-684.404" x="208.112">)</tspan></text>
<text xml:space="preserve" transform="matrix(1 0 -0 1 -150.8722 733.0578)" font-size="9.9626" font-family="Computer Modern"><tspan y="-684.404" x="248.911 255.27712 260.25843">Tor</tspan></text>
<text xml:space="preserve" transform="matrix(1 0 -0 1 -150.8722 733.0578)" font-size="6.9738" font-family="Computer Modern" font-style="italic"><tspan y="-688.74899" x="264.16">R</tspan></text>
<text xml:space="preserve" transform="matrix(1 0 -0 1 -150.8722 733.0578)" font-size="6.9738" font-family="Computer Modern"><tspan y="-681.941" x="264.16">1</tspan></text>
<text xml:space="preserve" transform="matrix(1 0 -0 1 -150.8722 733.0578)" font-size="9.9626" font-family="Computer Modern"><tspan y="-684.404" x="270.695">(</tspan></text>
<text xml:space="preserve" transform="matrix(1 0 -0 1 -150.8722 733.0578)" font-size="9.9626" font-family="Computer Modern" font-style="italic"><tspan y="-684.404" x="274.57 284.76176 289.1951">M,N</tspan></text>
<text xml:space="preserve" transform="matrix(1 0 -0 1 -150.8722 733.0578)" font-size="9.9626" font-family="Computer Modern"><tspan y="-684.404" x="298.286">)</tspan></text>
<text xml:space="preserve" transform="matrix(1 0 -0 1 -150.87221 733.0578)" font-size="9.9626" font-family="Computer Modern"><tspan y="-684.404" x="339.086 345.4521 350.43339">Tor</tspan></text>
<text xml:space="preserve" transform="matrix(1 0 -0 1 -150.87221 733.0578)" font-size="6.9738" font-family="Computer Modern" font-style="italic"><tspan y="-688.74899" x="354.33399">R</tspan></text>
<text xml:space="preserve" transform="matrix(1 0 -0 1 -150.87221 733.0578)" font-size="6.9738" font-family="Computer Modern"><tspan y="-681.941" x="354.33399">1</tspan></text>
<text xml:space="preserve" transform="matrix(1 0 -0 1 -150.87221 733.0578)" font-size="9.9626" font-family="Computer Modern"><tspan y="-684.404" x="360.87">(</tspan></text>
<text xml:space="preserve" transform="matrix(1 0 -0 1 -150.87221 733.0578)" font-size="9.9626" font-family="Computer Modern" font-style="italic"><tspan y="-684.404" x="364.744">M</tspan></text>
<text xml:space="preserve" transform="matrix(1 0 -0 1 -150.87221 733.0578)" font-size="6.9738" font-family="Computer Modern" font-style="italic"><tspan y="-688.019" x="375.496 377.79039">&#x2032;&#x2032;</tspan></text>
<text xml:space="preserve" transform="matrix(1 0 -0 1 -150.87221 733.0578)" font-size="9.9626" font-family="Computer Modern" font-style="italic"><tspan y="-684.404" x="380.588 385.02137">,N</tspan></text>
<text xml:space="preserve" transform="matrix(1 0 -0 1 -150.87221 733.0578)" font-size="9.9626" font-family="Computer Modern"><tspan y="-684.404" x="394.10603">)</tspan></text>
<text xml:space="preserve" transform="matrix(1 0 -0 1 -150.8722 733.0578)" font-size="9.9626" font-family="Computer Modern" font-style="italic"><tspan y="-649.199" x="163.012">M</tspan></text>
<text xml:space="preserve" transform="matrix(1 0 -0 1 -150.8722 733.0578)" font-size="6.9738" font-family="Computer Modern" font-style="italic"><tspan y="-652.81399" x="173.76399">&#x2032;</tspan></text>
<text xml:space="preserve" transform="matrix(1 0 -0 1 -150.8722 733.0578)" font-size="9.9626" font-family="Computer Modern" font-style="italic"><tspan y="-649.199" x="178.773">&#x2297;</tspan></text>
<text xml:space="preserve" transform="matrix(1 0 -0 1 -150.8722 733.0578)" font-size="6.9738" font-family="Computer Modern" font-style="italic"><tspan y="-647.704" x="186.521">R</tspan></text>
<text xml:space="preserve" transform="matrix(1 0 -0 1 -150.8722 733.0578)" font-size="9.9626" font-family="Computer Modern" font-style="italic"><tspan y="-649.199" x="195.271">N</tspan></text>
<text xml:space="preserve" transform="matrix(1 0 -0 1 -150.8722 733.0578)" font-size="9.9626" font-family="Computer Modern" font-style="italic"><tspan y="-649.199" x="256.259">M</tspan></text>
<text xml:space="preserve" transform="matrix(1 0 -0 1 -150.8722 733.0578)" font-size="9.9626" font-family="Computer Modern" font-style="italic"><tspan y="-649.199" x="269.224">&#x2297;</tspan></text>
<text xml:space="preserve" transform="matrix(1 0 -0 1 -150.8722 733.0578)" font-size="6.9738" font-family="Computer Modern" font-style="italic"><tspan y="-647.704" x="276.973">R</tspan></text>
<text xml:space="preserve" transform="matrix(1 0 -0 1 -150.8722 733.0578)" font-size="9.9626" font-family="Computer Modern" font-style="italic"><tspan y="-649.199" x="285.722">N</tspan></text>
<text xml:space="preserve" transform="matrix(1 0 -0 1 -150.8722 733.0578)" font-size="9.9626" font-family="Computer Modern" font-style="italic"><tspan y="-649.199" x="346.71">M</tspan></text>
<text xml:space="preserve" transform="matrix(1 0 -0 1 -150.8722 733.0578)" font-size="6.9738" font-family="Computer Modern" font-style="italic"><tspan y="-652.81399" x="357.462 359.75639">&#x2032;&#x2032;</tspan></text>
<text xml:space="preserve" transform="matrix(1 0 -0 1 -150.8722 733.0578)" font-size="9.9626" font-family="Computer Modern" font-style="italic"><tspan y="-649.199" x="364.767">&#x2297;</tspan></text>
<text xml:space="preserve" transform="matrix(1 0 -0 1 -150.8722 733.0578)" font-size="6.9738" font-family="Computer Modern" font-style="italic"><tspan y="-647.704" x="372.516">R</tspan></text>
<text xml:space="preserve" transform="matrix(1 0 -0 1 -150.8722 733.0578)" font-size="9.9626" font-family="Computer Modern" font-style="italic"><tspan y="-649.199" x="381.266">N</tspan></text>
<text xml:space="preserve" transform="matrix(1 0 -0 1 -150.87223 733.0578)" font-size="9.9626" font-family="Computer Modern"><tspan y="-649.199" x="434.906">0</tspan></text>
<path transform="matrix(1,0,0,-1,146.76581,44.035829)" stroke-width=".39848" stroke-linecap="butt" stroke-miterlimit="10" stroke-linejoin="miter" fill="none" stroke="#000000" d="M-11.80173 34.69872H36.56148"/>
<path transform="matrix(1,0,0,-1,183.52652,9.337109)" stroke-width=".39848" stroke-linecap="round" stroke-linejoin="round" fill="none" stroke="#000000" d="M-2.07213 2.39091C-1.69356 .95633-.84995 .27893 0 0-.84995-.27893-1.69356-.95633-2.07213-2.39091"/>
<path transform="matrix(1,0,0,-1,146.76581,44.035829)" stroke-width=".39848" stroke-linecap="butt" stroke-miterlimit="10" stroke-linejoin="miter" fill="none" stroke="#000000" d="M36.95996 27.94312-80.77335 4.47827"/>
<path transform="matrix(-.98067,.19545,.19545,.98067,65.79709,39.596498)" stroke-width=".39848" stroke-linecap="round" stroke-linejoin="round" fill="none" stroke="#000000" d="M-2.07213 2.39091C-1.69356 .95633-.84995 .27893 0 0-.84995-.27893-1.69356-.95633-2.07213-2.39091"/>
<path transform="matrix(1,0,0,-1,146.76581,44.035829)" stroke-width=".39848" stroke-linecap="butt" stroke-miterlimit="10" stroke-linejoin="miter" fill="none" stroke="#000000" d="M-81.16411-2.12758H-53.61429"/>
<path transform="matrix(1,0,0,-1,93.35075,46.163408)" stroke-width=".39848" stroke-linecap="round" stroke-linejoin="round" fill="none" stroke="#000000" d="M-2.07213 2.39091C-1.69356 .95633-.84995 .27893 0 0-.84995-.27893-1.69356-.95633-2.07213-2.39091"/>
<path transform="matrix(1,0,0,-1,146.76581,44.035829)" stroke-width=".39848" stroke-linecap="butt" stroke-miterlimit="10" stroke-linejoin="miter" fill="none" stroke="#000000" d="M9.01164-2.12758H36.56148"/>
<path transform="matrix(1,0,0,-1,183.52652,46.163408)" stroke-width=".39848" stroke-linecap="round" stroke-linejoin="round" fill="none" stroke="#000000" d="M-2.07213 2.39091C-1.69356 .95633-.84995 .27893 0 0-.84995-.27893-1.69356-.95633-2.07213-2.39091"/>
<path transform="matrix(1,0,0,-1,146.76581,44.035829)" stroke-width=".39848" stroke-linecap="butt" stroke-miterlimit="10" stroke-linejoin="miter" fill="none" stroke="#000000" d="M36.95996-8.57767-88.39705-32.46915"/>
<path transform="matrix(-.98228,.1872,.1872,.98228,58.17305,76.54227)" stroke-width=".39848" stroke-linecap="round" stroke-linejoin="round" fill="none" stroke="#000000" d="M-2.07213 2.39091C-1.69356 .95633-.84995 .27893 0 0-.84995-.27893-1.69356-.95633-2.07213-2.39091"/>
<path transform="matrix(1,0,0,-1,146.76581,44.035829)" stroke-width=".39848" stroke-linecap="butt" stroke-miterlimit="10" stroke-linejoin="miter" fill="none" stroke="#000000" d="M-88.78845-37.33334H-46.2667"/>
<path transform="matrix(1,0,0,-1,100.69835,81.36917)" stroke-width=".39848" stroke-linecap="round" stroke-linejoin="round" fill="none" stroke="#000000" d="M-2.07213 2.39091C-1.69356 .95633-.84995 .27893 0 0-.84995-.27893-1.69356-.95633-2.07213-2.39091"/>
<path transform="matrix(1,0,0,-1,146.76581,44.035829)" stroke-width=".39848" stroke-linecap="butt" stroke-miterlimit="10" stroke-linejoin="miter" fill="none" stroke="#000000" d="M1.66406-37.33334H44.1858"/>
<path transform="matrix(1,0,0,-1,191.15085,81.36917)" stroke-width=".39848" stroke-linecap="round" stroke-linejoin="round" fill="none" stroke="#000000" d="M-2.07213 2.39091C-1.69356 .95633-.84995 .27893 0 0-.84995-.27893-1.69356-.95633-2.07213-2.39091"/>
<path transform="matrix(1,0,0,-1,146.76581,44.035829)" stroke-width=".39848" stroke-linecap="butt" stroke-miterlimit="10" stroke-linejoin="miter" fill="none" stroke="#000000" d="M97.20866-37.33334H132.38282"/>
<path transform="matrix(1,0,0,-1,279.34788,81.36917)" stroke-width=".39848" stroke-linecap="round" stroke-linejoin="round" fill="none" stroke="#000000" d="M-2.07213 2.39091C-1.69356 .95633-.84995 .27893 0 0-.84995-.27893-1.69356-.95633-2.07213-2.39091"/>
<text xml:space="preserve" transform="matrix(1 0 -0 1 -150.8722 733.0578)" font-size="6.9738" font-family="Computer Modern"><tspan y="-84.99" x="295.652">1</tspan></text>
</g>
</svg>
